<?xml version="1.0" standalone="no"?>
<!DOCTYPE svg PUBLIC "-//W3C//DTD SVG 20010904//EN"
 "http://www.w3.org/TR/2001/REC-SVG-20010904/DTD/svg10.dtd">
<svg version="1.0" xmlns="http://www.w3.org/2000/svg"
 width="2239.000000pt" height="2239.000000pt" viewBox="0 0 2239.000000 2239.000000"
 preserveAspectRatio="xMidYMid meet">
<metadata>
Created by potrace 1.14, written by Peter Selinger 2001-2017
</metadata>
<g transform="translate(0.000000,2239.000000) scale(0.100000,-0.100000)"
fill="#000000" stroke="none">
<path d="M10867 22385 c-1 -2 -72 -5 -157 -9 -85 -4 -182 -8 -215 -11 -33 -2
-103 -7 -155 -10 -52 -3 -106 -8 -120 -10 -14 -2 -61 -6 -105 -10 -44 -3 -91
-8 -105 -10 -14 -2 -52 -6 -85 -10 -94 -9 -143 -15 -250 -30 -55 -8 -122 -17
-150 -21 -27 -3 -52 -7 -55 -9 -3 -2 -29 -6 -59 -10 -30 -4 -63 -9 -75 -11
-12 -2 -34 -7 -51 -9 -27 -5 -168 -31 -220 -41 -11 -2 -76 -15 -145 -29 -120
-25 -140 -30 -185 -39 -170 -36 -498 -122 -715 -186 -234 -69 -697 -224 -775
-259 -11 -5 -92 -37 -180 -72 -88 -34 -164 -65 -170 -69 -5 -4 -21 -11 -35
-15 -93 -29 -677 -305 -910 -430 -192 -104 -419 -233 -487 -277 -23 -16 -45
-28 -48 -28 -4 0 -30 -15 -58 -34 -29 -18 -90 -57 -137 -86 -233 -145 -624
-417 -835 -582 -164 -128 -423 -339 -471 -383 -6 -5 -33 -29 -61 -52 -27 -23
-63 -55 -79 -70 -17 -15 -75 -68 -130 -117 -172 -156 -658 -647 -809 -820 -5
-6 -28 -32 -50 -57 -75 -85 -100 -114 -158 -184 -75 -90 -84 -100 -132 -160
-21 -28 -42 -52 -45 -55 -9 -8 -200 -257 -261 -340 -453 -616 -831 -1254
-1151 -1940 -60 -128 -248 -568 -248 -580 0 -6 -4 -18 -10 -28 -25 -44 -166
-437 -244 -680 -66 -204 -135 -447 -192 -672 -37 -148 -88 -371 -101 -440 -2
-14 -13 -63 -23 -110 -10 -47 -21 -105 -25 -130 -4 -25 -10 -63 -15 -85 -5
-22 -11 -60 -15 -85 -3 -25 -8 -52 -10 -60 -2 -8 -7 -35 -10 -60 -3 -25 -8
-52 -10 -60 -2 -8 -7 -39 -10 -69 -4 -30 -8 -62 -10 -71 -2 -9 -6 -41 -9 -71
-3 -30 -8 -65 -10 -79 -6 -35 -17 -117 -22 -170 -2 -25 -6 -63 -9 -85 -2 -22
-7 -71 -10 -110 -4 -38 -8 -83 -10 -100 -2 -16 -6 -77 -10 -135 -3 -58 -8
-123 -10 -145 -28 -279 -22 -1153 10 -1500 3 -33 8 -89 10 -125 6 -88 18 -206
30 -310 2 -19 7 -60 10 -90 4 -30 8 -66 10 -80 9 -66 15 -109 20 -150 6 -47 7
-50 25 -165 7 -38 14 -82 16 -98 17 -110 25 -160 34 -202 5 -22 12 -56 15 -75
3 -19 13 -69 22 -110 28 -133 34 -165 39 -190 27 -139 137 -560 205 -790 42
-141 173 -540 189 -575 5 -11 21 -54 35 -95 28 -81 166 -429 195 -495 10 -22
46 -103 80 -180 73 -166 298 -625 365 -745 26 -47 63 -114 83 -150 40 -75 60
-109 207 -355 60 -99 112 -181 117 -183 4 -2 8 -8 8 -13 0 -19 338 -514 441
-647 35 -45 37 -46 254 -134 187 -76 364 -131 460 -143 28 -4 61 -8 75 -11 37
-6 272 -5 322 2 305 42 528 168 686 385 119 165 226 432 268 669 4 25 8 47 9
50 1 5 12 103 21 185 5 50 5 622 0 810 -4 138 -12 335 -21 530 -3 55 -7 147
-10 205 -5 117 -13 266 -20 380 -2 41 -7 125 -10 185 -3 61 -8 137 -11 170 -2
33 -7 103 -9 155 -10 178 -20 343 -30 480 -8 99 -14 205 -20 310 -3 52 -7 113
-9 135 -3 22 -7 92 -11 155 -4 63 -9 131 -11 150 -1 19 -6 80 -9 135 -3 55 -7
116 -10 135 -2 19 -7 78 -11 130 -3 52 -7 113 -9 135 -9 109 -17 216 -20 265
-4 62 -13 169 -20 245 -2 28 -7 84 -10 125 -3 41 -8 95 -10 120 -2 25 -7 83
-10 130 -4 47 -8 101 -10 120 -2 19 -7 67 -10 105 -3 39 -8 93 -10 120 -2 28
-7 84 -10 125 -3 41 -8 91 -10 110 -4 32 -10 104 -20 220 -4 46 -12 130 -20
230 -8 81 -16 160 -20 200 -3 19 -7 71 -10 115 -4 44 -8 91 -10 105 -2 14 -6
57 -10 95 -3 39 -8 86 -10 105 -2 19 -6 64 -10 100 -8 83 -14 143 -20 200 -2
25 -7 70 -10 100 -3 30 -7 73 -9 95 -3 22 -7 74 -10 115 -4 41 -8 84 -10 95
-2 11 -7 61 -10 110 -4 50 -9 101 -11 115 -2 14 -7 57 -10 95 -3 39 -8 93 -10
120 -3 28 -8 68 -10 90 -4 44 -13 140 -20 225 -5 64 -14 148 -20 205 -2 22 -7
66 -10 98 -9 100 -16 171 -20 212 -12 115 -22 225 -30 320 -3 39 -7 79 -9 90
-2 11 -7 61 -10 110 -4 50 -9 101 -11 115 -2 14 -6 54 -10 90 -10 124 -16 185
-18 187 -5 4 -401 -137 -492 -176 -192 -82 -478 -233 -592 -312 -23 -16 -44
-29 -48 -29 -10 0 -263 -190 -325 -244 -191 -168 -364 -358 -485 -533 -205
-296 -350 -609 -406 -876 -27 -130 -34 -383 -13 -473 8 -32 16 -72 19 -88 11
-55 61 -172 100 -232 54 -81 182 -206 290 -283 254 -181 357 -302 383 -450 36
-201 -71 -425 -252 -526 -196 -108 -424 -81 -613 72 -74 60 -93 81 -164 176
-83 111 -219 398 -254 537 -3 8 -14 51 -26 95 -11 44 -23 89 -25 100 -43 218
-56 423 -41 640 4 50 9 101 11 115 3 14 10 59 16 100 6 41 23 122 37 180 13
58 26 112 28 120 6 26 75 234 85 255 5 11 23 56 41 100 89 220 254 501 421
720 165 214 475 524 693 693 213 165 475 323 821 496 156 78 211 104 349 166
28 12 73 32 100 45 163 74 419 177 780 316 143 55 314 121 380 147 66 26 122
47 125 48 3 0 14 4 25 9 11 4 64 25 118 45 82 32 97 35 98 21 1 -9 0 -68 -2
-131 -11 -343 0 -1315 16 -1525 2 -27 7 -113 10 -190 4 -77 8 -162 10 -190 2
-27 6 -102 10 -165 3 -63 8 -131 10 -150 1 -19 6 -84 10 -145 3 -60 8 -128 10
-150 2 -22 7 -76 10 -120 3 -44 8 -98 10 -120 3 -22 7 -76 10 -120 3 -44 8
-98 10 -120 2 -22 6 -71 10 -110 3 -38 8 -97 11 -130 3 -33 7 -76 9 -95 2 -19
7 -64 10 -100 6 -67 12 -133 20 -210 3 -25 7 -74 11 -110 3 -36 7 -76 9 -90 2
-14 7 -63 10 -110 4 -47 8 -101 10 -120 2 -19 7 -64 10 -100 3 -36 8 -81 10
-100 2 -19 7 -69 10 -110 4 -41 8 -86 10 -100 2 -14 7 -61 10 -105 3 -44 8
-91 10 -105 3 -23 8 -75 21 -225 3 -33 7 -76 9 -95 2 -19 7 -64 10 -100 3 -36
8 -85 10 -110 2 -25 7 -72 10 -105 5 -58 10 -102 20 -205 10 -96 14 -145 20
-215 3 -38 8 -86 10 -105 2 -19 7 -64 10 -100 6 -67 11 -124 20 -207 2 -27 7
-77 10 -113 3 -36 8 -81 10 -100 2 -19 7 -69 10 -110 3 -41 7 -91 10 -110 6
-49 19 -182 30 -310 3 -36 8 -81 10 -100 2 -19 7 -66 10 -105 3 -38 8 -88 10
-110 2 -22 7 -69 10 -105 3 -36 8 -83 10 -105 2 -22 7 -69 10 -105 3 -36 8
-81 10 -100 2 -19 7 -71 10 -115 4 -44 8 -96 10 -115 3 -31 7 -94 21 -325 5
-90 5 -669 0 -760 -13 -227 -27 -374 -52 -560 -18 -132 -23 -165 -29 -185 -2
-8 -6 -32 -9 -52 -3 -21 -17 -90 -32 -155 -14 -65 -27 -126 -29 -136 -29 -136
-145 -480 -216 -638 -242 -546 -586 -1006 -995 -1331 -84 -67 -260 -188 -273
-188 -5 0 -11 -3 -13 -7 -14 -34 -430 -226 -600 -278 -32 -10 -58 -21 -58 -24
0 -13 432 -442 586 -581 33 -30 80 -73 105 -95 24 -22 91 -81 149 -130 58 -50
107 -92 110 -96 5 -5 281 -228 350 -281 342 -268 837 -600 1243 -834 301 -174
676 -368 947 -489 58 -26 130 -58 160 -72 504 -230 1395 -528 1910 -638 8 -2
53 -12 100 -23 202 -48 614 -125 840 -157 63 -9 126 -18 140 -20 23 -3 44 -6
160 -20 19 -2 62 -7 95 -10 33 -4 74 -8 90 -10 502 -57 1287 -74 1810 -40 156
10 245 16 275 20 19 2 69 7 110 10 89 7 162 14 210 20 19 2 91 12 160 20 69 9
136 18 150 20 14 2 48 7 75 11 28 3 59 8 70 10 10 2 37 6 60 9 22 3 78 13 125
21 245 43 228 40 345 64 119 25 131 28 170 36 382 78 1155 306 1510 446 55 22
105 41 110 42 18 5 363 146 420 171 29 13 54 24 205 91 119 52 593 292 746
377 330 184 597 348 944 584 85 58 282 201 384 278 65 49 131 99 145 110 75
56 359 289 441 361 77 69 258 230 305 273 76 70 523 518 590 592 33 36 89 99
125 139 36 40 74 82 85 94 11 12 54 62 95 111 41 50 77 92 81 95 13 12 224
276 311 390 225 296 469 653 665 976 115 188 313 539 313 553 0 5 9 20 21 35
11 14 17 26 14 26 -4 0 -3 6 3 13 11 13 212 411 212 420 0 3 23 53 50 111 28
58 50 108 50 110 0 3 13 33 29 68 127 277 326 811 435 1173 41 132 85 284 91
311 2 10 18 71 35 134 17 63 33 122 35 130 2 8 8 35 14 60 5 25 21 92 35 150
14 58 27 116 30 130 2 14 14 68 24 120 11 52 23 111 26 130 3 19 8 46 11 60 3
14 7 39 10 55 3 17 8 41 10 55 10 49 13 66 25 145 7 44 14 88 16 98 3 17 29
210 40 292 2 22 7 51 9 65 3 14 7 52 10 85 3 33 8 80 10 105 16 158 23 231 30
330 3 47 8 110 10 140 24 305 24 1096 0 1397 -1 21 -6 81 -10 133 -4 52 -8
111 -10 130 -2 19 -6 69 -10 110 -3 41 -8 93 -11 115 -9 77 -13 110 -19 165
-4 30 -8 66 -10 80 -2 14 -7 48 -10 75 -3 28 -7 61 -10 75 -3 14 -7 41 -9 60
-3 19 -7 53 -11 75 -3 22 -8 51 -10 65 -18 112 -35 207 -62 345 -14 72 -27
140 -29 152 -4 20 -80 354 -89 393 -4 13 -36 138 -50 193 -3 9 -7 27 -10 39
-27 124 -233 782 -280 893 -7 17 -20 53 -30 80 -18 52 -151 389 -180 460 l-17
40 -26 -50 c-14 -28 -26 -52 -27 -55 -1 -14 -91 -168 -144 -246 -156 -232
-320 -401 -626 -642 -11 -9 -239 -160 -270 -179 -56 -35 -240 -136 -313 -172
-45 -23 -82 -42 -82 -44 0 -1 15 -3 33 -3 41 0 223 -13 262 -19 17 -2 49 -6
73 -9 501 -62 887 -236 1200 -541 85 -83 214 -243 263 -326 50 -86 139 -282
163 -359 51 -164 42 -129 70 -275 27 -150 39 -274 40 -435 0 -118 -11 -347
-18 -359 -2 -3 -6 -28 -10 -56 -6 -50 -12 -88 -21 -135 -3 -14 -7 -35 -10 -47
-12 -64 -68 -260 -100 -348 -57 -156 -58 -158 -72 -185 -7 -14 -13 -28 -13
-33 0 -8 -105 -221 -137 -277 -45 -79 -170 -277 -183 -290 -3 -3 -25 -32 -49
-65 -25 -33 -47 -62 -50 -65 -4 -3 -31 -37 -62 -75 -76 -96 -292 -315 -414
-421 -378 -328 -842 -612 -1295 -794 -236 -94 -583 -195 -778 -226 -20 -3 -39
-7 -42 -9 -3 -2 -33 -7 -65 -10 -33 -4 -62 -9 -65 -10 -3 -2 -34 -6 -70 -10
-36 -3 -76 -8 -90 -10 -31 -5 -124 -13 -212 -20 -38 -3 -96 -7 -130 -10 -35
-3 -99 -7 -143 -10 -44 -3 -109 -8 -145 -10 -36 -2 -108 -7 -160 -10 -52 -3
-131 -7 -175 -10 -44 -3 -120 -7 -170 -10 -144 -9 -333 -23 -410 -30 -60 -6
-152 -14 -220 -20 -33 -3 -76 -7 -95 -10 -19 -2 -62 -7 -95 -10 -83 -8 -134
-14 -175 -20 -19 -2 -60 -7 -90 -10 -30 -3 -66 -8 -80 -10 -14 -2 -49 -7 -79
-10 -30 -4 -61 -8 -70 -10 -18 -3 -90 -14 -136 -21 -16 -2 -41 -6 -55 -9 -14
-3 -41 -7 -60 -10 -161 -25 -558 -117 -715 -165 -110 -34 -145 -43 -150 -38
-4 4 9 105 30 238 2 14 7 45 10 70 4 25 9 52 10 60 2 8 4 23 4 32 1 16 21 22
131 43 14 3 37 7 52 11 15 3 29 4 30 3 2 -1 13 3 24 9 12 6 36 14 54 17 47 8
255 78 325 110 291 129 463 280 587 515 76 143 164 406 223 665 15 66 29 130
30 142 2 11 6 29 9 40 3 10 8 34 11 53 3 19 10 60 16 90 12 63 14 77 24 145 4
28 9 59 11 70 2 10 6 37 9 60 3 22 10 67 15 100 5 33 12 87 16 120 3 33 8 67
9 76 2 9 6 40 10 70 3 30 8 65 10 79 10 72 15 109 20 148 8 64 16 124 20 152
2 14 7 52 10 85 4 33 8 62 10 65 2 3 6 39 10 80 4 41 8 77 10 80 2 3 6 34 10
70 3 36 8 72 10 80 2 8 7 40 10 70 3 30 8 66 10 80 7 47 15 105 20 150 3 25 8
63 11 85 10 71 12 89 19 145 4 30 8 66 10 80 5 33 14 99 20 153 3 23 8 60 11
82 9 64 12 87 19 145 4 30 9 62 10 70 1 8 6 44 11 80 4 36 8 67 9 70 1 3 5 34
9 70 4 36 11 90 16 120 5 30 11 80 14 110 3 30 8 64 10 76 2 11 7 45 10 75 3
30 8 65 10 79 4 23 11 74 22 160 3 19 11 87 19 150 9 63 18 135 21 160 3 25 7
56 10 70 4 25 8 55 19 140 12 101 27 213 31 234 2 10 6 42 8 70 3 28 12 98 20
156 19 132 26 187 30 226 2 17 6 49 10 70 3 21 8 59 11 84 3 25 7 54 9 65 2
11 7 49 11 85 4 36 9 74 11 84 10 54 19 206 18 321 -1 154 -19 209 -89 274
-104 96 -230 113 -411 56 -22 -7 -22 -4 0 165 3 19 8 58 11 85 3 28 8 59 10
70 2 11 4 27 4 37 1 11 14 19 44 24 23 4 44 8 47 9 3 0 21 4 40 8 19 4 46 10
60 13 14 3 34 7 45 9 29 6 236 55 260 61 11 3 29 7 40 9 27 6 378 102 435 120
90 27 155 46 170 50 43 10 492 162 570 192 59 23 115 41 118 38 2 -2 -5 -48
-17 -102 -11 -54 -22 -109 -25 -123 -2 -14 -7 -36 -10 -50 -3 -14 -8 -37 -10
-53 -3 -15 -7 -35 -10 -45 -3 -9 -7 -33 -10 -52 -3 -19 -8 -46 -11 -60 -5 -26
-29 -150 -44 -235 -6 -27 -13 -70 -17 -95 -4 -25 -8 -47 -9 -50 0 -3 -4 -27
-9 -53 -4 -27 -9 -58 -12 -70 -2 -12 -6 -39 -9 -62 -4 -22 -13 -80 -20 -130
-8 -49 -17 -117 -20 -150 -4 -33 -8 -71 -10 -85 -7 -48 -21 -160 -30 -245 -3
-33 -8 -73 -10 -90 -2 -16 -7 -52 -10 -80 -3 -27 -8 -66 -11 -85 -3 -19 -7
-57 -10 -85 -4 -50 -10 -101 -19 -165 -3 -19 -7 -60 -10 -90 -3 -30 -7 -64 -9
-75 -2 -11 -7 -54 -12 -95 -4 -41 -8 -77 -9 -80 -1 -3 -5 -36 -9 -75 -4 -38
-9 -81 -11 -95 -5 -33 -19 -148 -30 -250 -3 -25 -8 -64 -11 -88 -4 -32 -3 -41
8 -37 7 2 38 7 68 10 150 15 439 74 618 126 545 158 919 389 1244 769 77 89
217 308 282 438 86 172 162 383 181 502 3 19 10 51 15 70 8 35 13 64 27 190
21 196 1 525 -43 688 -8 31 -17 66 -19 77 -16 71 -121 292 -167 350 -5 6 -22
28 -39 50 -34 45 -139 155 -190 200 -57 50 -220 155 -294 189 -73 34 -198 83
-231 91 -10 2 -53 13 -94 24 -73 19 -87 22 -180 36 -25 4 -56 9 -70 11 -141
22 -500 22 -715 -1 -102 -10 -201 -22 -250 -30 -16 -3 -48 -7 -70 -10 -22 -4
-47 -8 -55 -10 -8 -2 -30 -7 -47 -10 -71 -11 -91 -15 -188 -35 -138 -28 -388
-94 -520 -138 -60 -19 -114 -37 -120 -38 -16 -4 -194 -70 -285 -107 -472 -190
-962 -473 -1385 -801 -71 -55 -139 -108 -150 -117 -490 -408 -851 -824 -1156
-1329 -108 -180 -255 -479 -336 -685 -20 -49 -44 -110 -53 -135 -21 -51 -117
-357 -124 -392 -2 -13 -18 -86 -35 -163 -17 -77 -33 -156 -35 -175 -2 -19 -7
-51 -10 -70 -23 -142 -31 -256 -31 -475 0 -275 10 -391 49 -592 63 -318 285
-695 500 -847 77 -55 127 -85 361 -213 218 -120 358 -210 431 -276 107 -97
166 -276 139 -420 -19 -98 -125 -232 -217 -275 -146 -68 -350 -52 -538 42
-315 157 -665 524 -869 908 -127 239 -253 624 -287 873 -3 28 -8 57 -9 65 -2
9 -6 43 -10 75 -4 33 -9 71 -11 85 -11 75 -19 251 -19 450 0 240 7 363 29 535
3 22 8 63 12 90 36 295 184 827 318 1140 107 248 200 440 288 594 26 46 48 85
48 87 0 4 93 149 173 269 55 83 257 356 281 381 6 6 29 32 51 59 225 271 525
560 835 804 58 45 112 88 120 94 116 92 420 295 625 417 229 136 577 309 815
404 25 10 59 25 75 32 113 51 598 210 696 229 9 2 47 12 85 23 61 18 83 23
144 37 47 11 300 65 325 69 17 3 41 8 55 11 13 2 42 7 65 10 22 3 65 10 95 15
61 11 107 18 160 24 19 3 51 7 70 10 52 8 116 15 200 21 41 4 86 8 100 11 135
22 686 21 855 -1 147 -19 159 -18 133 9 -7 7 -26 31 -43 52 -38 49 -207 247
-294 343 -264 296 -686 714 -986 976 -49 43 -103 90 -120 104 -16 15 -88 74
-160 131 -71 58 -136 110 -143 117 -24 23 -368 280 -488 365 -249 177 -672
447 -889 568 -252 141 -340 188 -565 300 -487 245 -962 442 -1480 614 -101 33
-344 108 -385 119 -11 3 -60 17 -110 32 -112 33 -485 126 -625 155 -265 56
-515 103 -610 115 -25 3 -52 8 -60 10 -8 2 -37 6 -65 10 -27 3 -57 8 -65 10
-8 2 -40 6 -70 10 -30 3 -66 7 -80 9 -14 3 -50 7 -81 11 -31 3 -65 7 -75 9
-11 2 -57 7 -104 11 -47 4 -87 9 -90 10 -3 2 -50 6 -105 10 -55 3 -116 8 -135
10 -19 2 -87 6 -150 10 -63 4 -151 9 -195 11 -80 5 -833 12 -838 9z m3543
-3906 c92 -45 194 -150 242 -250 33 -68 66 -167 83 -254 17 -82 13 -256 -9
-380 -15 -81 -104 -297 -158 -380 -165 -253 -372 -452 -637 -609 -92 -54 -280
-150 -368 -187 -13 -5 -33 -13 -45 -19 -118 -52 -399 -147 -613 -209 -68 -19
-380 -99 -420 -107 -11 -2 -42 -8 -70 -14 -27 -6 -59 -12 -70 -14 -11 -3 -87
-18 -170 -35 -82 -17 -163 -32 -180 -35 -16 -3 -100 -17 -185 -31 -187 -32
-180 -31 -277 -45 -43 -6 -89 -13 -103 -16 -14 -2 -47 -7 -75 -10 -27 -3 -53
-9 -56 -13 -4 -3 -10 -74 -13 -157 -4 -83 -9 -187 -11 -230 -2 -43 -7 -151
-10 -239 -3 -88 -8 -198 -10 -245 -2 -47 -7 -157 -10 -245 -3 -88 -8 -203 -10
-255 -4 -91 -11 -276 -20 -520 -10 -277 -16 -463 -20 -570 -2 -63 -7 -191 -10
-285 -3 -93 -7 -224 -10 -290 -4 -122 -11 -322 -20 -585 -3 -80 -7 -203 -10
-275 -3 -71 -8 -200 -10 -285 -3 -85 -7 -209 -10 -275 -7 -193 -15 -439 -20
-590 -3 -77 -7 -198 -10 -270 -3 -71 -7 -200 -10 -285 -7 -229 -14 -427 -20
-590 -6 -169 -10 -419 -28 -1903 -2 -117 1 -130 23 -129 13 0 148 14 170 17
14 2 57 6 95 10 39 3 77 8 85 10 8 2 38 6 65 10 56 7 64 8 195 30 52 9 109 18
125 21 97 16 325 75 505 129 67 21 310 111 365 135 22 10 74 33 115 50 41 18
79 36 85 41 5 5 15 9 23 9 12 0 13 -35 8 -217 -6 -191 -9 -219 -24 -228 -33
-19 -253 -113 -330 -141 -42 -15 -81 -30 -87 -34 -5 -4 -23 -11 -40 -15 -35
-10 -36 -10 -55 -18 -72 -30 -356 -99 -505 -122 -43 -6 -284 -43 -325 -50 -14
-2 -50 -7 -80 -10 -30 -4 -62 -9 -70 -10 -8 -1 -40 -6 -70 -9 -101 -13 -135
-17 -160 -21 -14 -2 -54 -7 -90 -10 -36 -4 -72 -9 -81 -10 -9 -2 -40 -6 -69
-10 -29 -4 -62 -9 -74 -11 -12 -2 -39 -6 -61 -9 -92 -11 -124 -16 -205 -30
-47 -8 -103 -17 -125 -21 -22 -3 -59 -10 -83 -15 -23 -5 -59 -12 -80 -15 -39
-6 -163 -30 -197 -38 -36 -8 -170 -37 -195 -42 -134 -26 -522 -135 -765 -215
-104 -34 -194 -64 -200 -65 -24 -6 -225 -82 -359 -135 -52 -20 -70 -24 -63
-11 3 4 8 99 11 212 4 112 8 205 9 205 1 1 52 19 112 40 397 138 684 292 865
462 158 149 249 316 320 588 46 181 64 320 95 750 15 193 38 614 50 880 3 66
7 167 10 225 7 151 14 312 20 490 3 85 8 202 10 260 2 58 7 179 10 270 3 91 7
230 10 310 3 80 7 242 10 360 3 118 8 303 10 410 3 107 7 283 10 390 2 107 7
285 10 395 3 110 8 290 10 400 3 110 7 283 10 385 2 102 7 284 10 405 3 121 7
303 10 405 3 102 7 280 10 395 12 524 15 598 21 725 3 74 8 139 11 143 3 4 -6
5 -19 3 -12 -3 -115 -21 -228 -41 -244 -41 -261 -44 -280 -50 -8 -3 -33 -7
-55 -10 -22 -4 -48 -8 -57 -11 -10 -3 -30 -7 -45 -10 -16 -3 -66 -14 -113 -25
-47 -11 -96 -23 -110 -25 -151 -30 -602 -157 -820 -231 -85 -29 -162 -55 -170
-57 -27 -8 -254 -97 -297 -116 -24 -11 -45 -20 -49 -20 -9 0 -384 -186 -444
-221 -30 -17 -118 -73 -195 -125 -580 -384 -930 -846 -1085 -1429 -16 -60 -31
-126 -34 -145 -3 -19 -7 -44 -10 -55 -2 -11 -7 -49 -11 -85 -4 -36 -9 -74 -11
-85 -5 -25 -5 -289 0 -330 2 -16 7 -61 10 -99 4 -38 9 -73 12 -77 2 -4 6 -26
9 -50 9 -69 52 -212 89 -292 66 -144 143 -241 281 -352 28 -22 52 -43 55 -46
3 -3 66 -51 140 -106 74 -55 161 -124 193 -153 273 -250 301 -556 72 -785
-211 -211 -537 -211 -783 0 -99 85 -259 285 -316 395 -96 186 -137 280 -182
420 -26 78 -79 283 -88 335 -3 17 -7 41 -11 55 -3 14 -8 43 -11 65 -2 22 -7
51 -9 65 -2 14 -7 57 -11 95 -4 39 -8 84 -10 100 -4 38 -4 380 0 420 2 17 7
64 10 105 4 41 9 82 11 90 2 8 7 38 10 65 23 202 132 595 236 849 91 223 191
416 323 621 60 94 207 299 225 315 3 3 28 32 56 65 117 141 294 320 448 452
56 48 104 90 107 93 20 21 227 172 325 237 258 173 581 341 905 471 307 123
580 209 970 307 43 11 265 58 330 71 109 20 110 21 163 28 27 4 58 9 69 11 10
2 85 14 166 25 81 12 158 23 172 25 14 2 48 7 75 10 81 9 138 16 165 21 14 2
54 6 90 10 36 3 76 7 90 9 14 2 54 6 90 10 36 4 76 8 90 10 14 2 61 7 105 11
44 3 87 8 96 9 8 2 55 6 105 10 49 3 100 8 114 10 14 3 61 7 105 11 44 3 96 7
115 9 19 2 73 6 120 10 47 3 101 8 120 10 19 2 67 7 105 10 39 3 95 7 125 10
62 5 158 14 210 20 38 4 130 14 195 20 22 3 57 6 77 9 20 2 65 7 100 11 63 7
76 8 153 19 22 3 60 8 85 11 44 5 101 13 150 20 154 23 241 38 270 45 19 5 51
12 70 15 189 32 438 128 554 215 192 141 260 380 178 625 -16 50 -49 144 -73
210 -40 111 -43 127 -43 220 0 86 4 109 28 166 33 81 105 173 169 216 146 98
336 110 497 32z"/>
<path d="M18957 13514 c-1 -1 -56 -5 -122 -9 -66 -3 -133 -8 -150 -10 -16 -2
-70 -6 -120 -10 -49 -4 -102 -8 -116 -11 -15 -2 -57 -6 -95 -9 -38 -3 -80 -8
-94 -10 -14 -2 -56 -7 -95 -10 -38 -4 -73 -10 -77 -14 -3 -3 -9 -31 -13 -61
-3 -30 -8 -66 -10 -80 -3 -14 -7 -45 -10 -70 -3 -25 -7 -56 -10 -70 -2 -14 -7
-50 -10 -80 -4 -30 -8 -66 -10 -80 -2 -14 -9 -65 -15 -115 -6 -49 -13 -101
-15 -115 -2 -14 -6 -47 -10 -75 -3 -27 -8 -61 -10 -75 -2 -14 -6 -47 -9 -75
-4 -27 -13 -102 -21 -165 -9 -63 -18 -133 -20 -155 -3 -22 -7 -56 -10 -75 -3
-19 -7 -55 -10 -80 -12 -89 -14 -106 -25 -185 -6 -44 -13 -93 -15 -110 -10
-87 -18 -142 -21 -160 -2 -11 -6 -42 -9 -70 -6 -51 -12 -90 -20 -135 -2 -14
-7 -45 -10 -70 -3 -25 -10 -70 -15 -100 -5 -30 -12 -68 -14 -85 -3 -16 -12
-73 -21 -125 -9 -52 -18 -108 -21 -125 -3 -16 -7 -43 -10 -60 -3 -16 -7 -37
-9 -45 -2 -8 -6 -31 -9 -51 -26 -175 -175 -791 -217 -895 -16 -39 -23 -59 -50
-129 -38 -101 -191 -383 -220 -405 -3 -3 -11 -15 -18 -27 -9 -18 -9 -23 1 -24
7 0 22 -2 33 -4 11 -2 54 -7 95 -11 41 -3 83 -8 93 -10 56 -10 295 -19 517
-19 289 0 387 6 575 36 129 20 146 23 250 45 38 9 78 17 87 19 169 36 435 136
627 236 442 231 741 543 991 1034 175 344 271 667 307 1036 10 96 10 377 0
499 -23 298 -106 560 -245 770 -31 47 -70 101 -87 120 -174 199 -333 315 -551
403 -75 30 -241 73 -314 82 -30 3 -73 9 -95 12 -35 5 -523 11 -528 7z"/>
</g>
</svg>
